<?xml version="1.0" encoding="utf-8"?>
<!-- Generator: Adobe Illustrator 19.0.0, SVG Export Plug-In . SVG Version: 6.00 Build 0)  -->
<svg version="1.1" id="Layer_1" xmlns="http://www.w3.org/2000/svg" xmlns:xlink="http://www.w3.org/1999/xlink" x="0px" y="0px"
	 viewBox="37 9 673.3 583" style="enable-background:new 37 9 673.3 583;" xml:space="preserve">
<style type="text/css">
	.st0{fill:#F0ECEC;}
	.st1{fill:#FFFFFF;}
</style>
<path id="XMLID_14_" class="st0" d="M200,582.9L42.3,309.6c-3.3-5.6-3.3-12.6,0-18.2L200,18.1c3.3-5.7,9.3-9.1,15.8-9.1h315.5
	c6.5,0,12.6,3.5,15.8,9.1L705,291.4c3.3,5.7,3.3,12.6,0,18.3L547.2,582.9c-3.3,5.7-9.3,9.1-15.8,9.1H215.9
	C209.3,592,203.3,588.5,200,582.9z"/>
<polygon id="XMLID_19_" class="st1" points="513.4,300 443.5,178.5 303.7,178.5 233.9,300 302.9,420 319.7,389.3 268.4,300 
	321,208.5 426.2,208.5 478.9,300 426.2,391.5 424.5,391.5 442.6,421.5 443.5,421.5 "/>
<polygon id="XMLID_24_" class="st1" points="258.1,391.5 152.8,391.5 100.2,300 153,208.5 153.2,208.5 256.8,208.5 275.2,178.5 
	135.4,178.5 65.6,300 135.6,421.5 275.3,421.5 275.5,421.1 258.2,391.3 "/>
<polygon id="XMLID_20_" class="st1" points="678.7,300 608.8,178.5 469.1,178.5 468,180.4 486.4,208.5 591.6,208.5 644.2,300 
	591.6,391.5 486.3,391.5 471.7,421.5 608.8,421.5 "/>
<g id="XMLID_70_">
</g>
<g id="XMLID_71_">
</g>
<g id="XMLID_72_">
</g>
<g id="XMLID_73_">
</g>
<g id="XMLID_74_">
</g>
<g id="XMLID_75_">
</g>
<g id="XMLID_76_">
</g>
<g id="XMLID_77_">
</g>
<g id="XMLID_78_">
</g>
<g id="XMLID_79_">
</g>
<g id="XMLID_80_">
</g>
<g id="XMLID_81_">
</g>
<g id="XMLID_82_">
</g>
<g id="XMLID_83_">
</g>
<g id="XMLID_84_">
</g>
</svg>
