<?xml version="1.0" encoding="utf-8"?>
<!-- Generator: Adobe Illustrator 19.0.0, SVG Export Plug-In . SVG Version: 6.00 Build 0)  -->
<svg version="1.1" id="Layer_1" xmlns="http://www.w3.org/2000/svg" xmlns:xlink="http://www.w3.org/1999/xlink" x="0px" y="0px"
	 viewBox="0 0 673.3 583" style="enable-background:new 0 0 673.3 583;" xml:space="preserve">
<style type="text/css">
	.st0{fill:#2185D0;}
	.st1{fill:#FFFFFF;}
</style>
<path id="XMLID_14_" class="st0" d="M163,573.9L5.3,300.6C2,295,2,288,5.3,282.4L163,9.1c3.3-5.7,9.3-9.1,15.8-9.1h315.5
	c6.5,0,12.6,3.5,15.8,9.1L668,282.4c3.3,5.7,3.3,12.6,0,18.3L510.2,573.9c-3.3,5.7-9.3,9.1-15.8,9.1H178.9
	C172.3,583,166.3,579.5,163,573.9z"/>
<polygon id="XMLID_19_" class="st1" points="476.4,291 406.5,169.5 266.7,169.5 196.9,291 265.9,411 282.7,380.3 231.4,291 
	284,199.5 389.2,199.5 441.9,291 389.2,382.5 387.5,382.5 405.6,412.5 406.5,412.5 "/>
<polygon id="XMLID_24_" class="st1" points="221.1,382.5 115.8,382.5 63.2,291 116,199.5 116.2,199.5 219.8,199.5 238.2,169.5 
	98.4,169.5 28.6,291 98.6,412.5 238.3,412.5 238.5,412.1 221.2,382.3 "/>
<polygon id="XMLID_20_" class="st1" points="641.7,291 571.8,169.5 432.1,169.5 431,171.4 449.4,199.5 554.6,199.5 607.2,291 
	554.6,382.5 449.3,382.5 434.7,412.5 571.8,412.5 "/>
<g id="XMLID_70_">
</g>
<g id="XMLID_71_">
</g>
<g id="XMLID_72_">
</g>
<g id="XMLID_73_">
</g>
<g id="XMLID_74_">
</g>
<g id="XMLID_75_">
</g>
<g id="XMLID_76_">
</g>
<g id="XMLID_77_">
</g>
<g id="XMLID_78_">
</g>
<g id="XMLID_79_">
</g>
<g id="XMLID_80_">
</g>
<g id="XMLID_81_">
</g>
<g id="XMLID_82_">
</g>
<g id="XMLID_83_">
</g>
<g id="XMLID_84_">
</g>
</svg>
